<svg width="54" height="54" viewBox="0 0 54 54" fill="none" xmlns="http://www.w3.org/2000/svg">
<path d="M16.896 28.2051C15.9526 28.2051 15.0981 27.9727 14.3325 27.5078C13.5737 27.043 12.9824 26.397 12.5586 25.5698C12.1348 24.7358 11.9229 23.8027 11.9229 22.7705V22.3296C11.9229 21.2632 12.1279 20.3027 12.5381 19.4482C12.9551 18.5938 13.5327 17.9238 14.271 17.4385C15.0093 16.9463 15.8091 16.7002 16.6704 16.7002C18.0171 16.7002 19.0835 17.1616 19.8696 18.0845C20.6626 19.0005 21.0591 20.2549 21.0591 21.8477V22.5347H13.1431V22.7705C13.1431 24.0283 13.502 25.0776 14.2197 25.9185C14.9443 26.7524 15.8535 27.1694 16.9473 27.1694C17.6035 27.1694 18.1812 27.0498 18.6802 26.8105C19.186 26.5713 19.644 26.1885 20.0542 25.6621L20.8232 26.2466C19.9209 27.5522 18.6118 28.2051 16.896 28.2051ZM16.6704 17.7461C15.7476 17.7461 14.9683 18.0845 14.3325 18.7612C13.7036 19.438 13.3208 20.3472 13.1841 21.4888H19.8389V21.3555C19.8047 20.2891 19.5005 19.4209 18.9263 18.751C18.3521 18.0811 17.6001 17.7461 16.6704 17.7461ZM27.5498 27.1694C28.4043 27.1694 29.1187 26.9302 29.6929 26.4517C30.2739 25.9663 30.5884 25.3408 30.6362 24.5752H31.8154C31.7812 25.252 31.5693 25.8706 31.1797 26.4312C30.79 26.9849 30.2705 27.4189 29.6211 27.7334C28.9785 28.0479 28.2881 28.2051 27.5498 28.2051C26.0938 28.2051 24.9385 27.6992 24.084 26.6875C23.2363 25.6758 22.8125 24.3154 22.8125 22.6064V22.2373C22.8125 21.1436 23.0039 20.1763 23.3867 19.3354C23.7695 18.4946 24.3164 17.8452 25.0273 17.3872C25.7451 16.9292 26.5825 16.7002 27.5396 16.7002C28.7563 16.7002 29.7578 17.0625 30.5439 17.7871C31.3369 18.5117 31.7607 19.4653 31.8154 20.6479H30.6362C30.5815 19.7798 30.2671 19.0791 29.6929 18.5459C29.1255 18.0127 28.4077 17.7461 27.5396 17.7461C26.4321 17.7461 25.5708 18.146 24.9556 18.9458C24.3472 19.7456 24.043 20.8667 24.043 22.3091V22.668C24.043 24.083 24.3472 25.187 24.9556 25.98C25.5708 26.7729 26.4355 27.1694 27.5498 27.1694ZM33.5996 22.2886C33.5996 21.2222 33.8047 20.2617 34.2148 19.4072C34.6318 18.5527 35.2163 17.8896 35.9683 17.418C36.7271 16.9395 37.585 16.7002 38.542 16.7002C40.0186 16.7002 41.2148 17.2197 42.1309 18.2588C43.0469 19.291 43.5049 20.6616 43.5049 22.3706V22.627C43.5049 23.7002 43.2964 24.6675 42.8794 25.5288C42.4692 26.3833 41.8882 27.043 41.1362 27.5078C40.3843 27.9727 39.5264 28.2051 38.5625 28.2051C37.0928 28.2051 35.8965 27.689 34.9736 26.6567C34.0576 25.6177 33.5996 24.2437 33.5996 22.5347V22.2886ZM34.8301 22.627C34.8301 23.9531 35.1719 25.0435 35.8555 25.8979C36.5459 26.7456 37.4482 27.1694 38.5625 27.1694C39.6699 27.1694 40.5654 26.7456 41.249 25.8979C41.9395 25.0435 42.2847 23.9189 42.2847 22.5244V22.2886C42.2847 21.4409 42.1274 20.665 41.813 19.9609C41.4985 19.2568 41.0576 18.7134 40.4902 18.3306C39.9229 17.9409 39.2734 17.7461 38.542 17.7461C37.4482 17.7461 36.5562 18.1768 35.8657 19.0381C35.1753 19.8926 34.8301 21.0137 34.8301 22.4014V22.627Z" fill="black"/>
<path d="M6.91172 13.6688C2.48577 18.1024 0 24.1108 0 30.375C0 36.6392 2.48577 42.6476 6.91172 47.0813C11.5362 51.705 17.5783 54 23.6205 54C29.6626 54 35.7048 51.705 40.3292 47.0813C52.076 35.3363 54 0 54 0C54 0 18.6585 1.92375 6.91172 13.6688ZM37.6744 44.955C34.4677 48.1275 28.1436 49.6047 23.6205 49.6047C20.6163 49.6047 16.9735 48.5325 14.4419 47.0813C17.5473 37.3613 35 30.375 32 31C29 31.625 15.3842 35.724 10.2197 44.2965C-1.25581 37.0755 1.10451 23.2326 10.2197 15.6977C18.8372 6.72257 38.1686 4.65829 50.8605 3.13953C44.9287 40.5 37.6744 44.955 37.6744 44.955Z" fill="black"/>
</svg>
