<svg width="36" height="48" viewBox="0 0 36 48" fill="none" xmlns="http://www.w3.org/2000/svg">
<path fill-rule="evenodd" clip-rule="evenodd" d="M26.561 16.438C26.7007 16.5773 26.8115 16.7429 26.8871 16.9251C26.9627 17.1073 27.0016 17.3027 27.0016 17.5C27.0016 17.6973 26.9627 17.8927 26.8871 18.0749C26.8115 18.2571 26.7007 18.4227 26.561 18.562L17.561 27.562C17.4216 27.7017 17.2561 27.8125 17.0739 27.8881C16.8916 27.9638 16.6963 28.0027 16.499 28.0027C16.3017 28.0027 16.1063 27.9638 15.9241 27.8881C15.7418 27.8125 15.5763 27.7017 15.437 27.562L10.937 23.062C10.7975 22.9225 10.6869 22.757 10.6114 22.5747C10.5359 22.3925 10.4971 22.1972 10.4971 22C10.4971 21.8028 10.5359 21.6075 10.6114 21.4252C10.6869 21.243 10.7975 21.0775 10.937 20.938C11.0764 20.7985 11.242 20.6879 11.4242 20.6124C11.6064 20.5369 11.8017 20.4981 11.999 20.4981C12.1962 20.4981 12.3915 20.5369 12.5737 20.6124C12.7559 20.6879 12.9215 20.7985 13.061 20.938L16.499 24.379L24.437 16.438C24.5763 16.2983 24.7418 16.1875 24.9241 16.1119C25.1063 16.0362 25.3017 15.9973 25.499 15.9973C25.6963 15.9973 25.8916 16.0362 26.0739 16.1119C26.2561 16.1875 26.4216 16.2983 26.561 16.438Z" fill="black"/>
<path d="M0 6C0 4.4087 0.632141 2.88258 1.75736 1.75736C2.88258 0.632141 4.4087 0 6 0L30 0C31.5913 0 33.1174 0.632141 34.2426 1.75736C35.3679 2.88258 36 4.4087 36 6V46.5C35.9999 46.7713 35.9261 47.0375 35.7867 47.2703C35.6472 47.503 35.4472 47.6936 35.208 47.8216C34.9688 47.9497 34.6993 48.0105 34.4283 47.9975C34.1573 47.9845 33.8949 47.8983 33.669 47.748L18 39.303L2.331 47.748C2.10512 47.8983 1.84269 47.9845 1.57167 47.9975C1.30066 48.0105 1.0312 47.9497 0.791998 47.8216C0.552797 47.6936 0.352812 47.503 0.213342 47.2703C0.0738721 47.0375 0.000140161 46.7713 0 46.5V6ZM6 3C5.20435 3 4.44129 3.31607 3.87868 3.87868C3.31607 4.44129 3 5.20435 3 6V43.698L17.169 36.252C17.4152 36.0882 17.7043 36.0008 18 36.0008C18.2957 36.0008 18.5848 36.0882 18.831 36.252L33 43.698V6C33 5.20435 32.6839 4.44129 32.1213 3.87868C31.5587 3.31607 30.7956 3 30 3H6Z" fill="black"/>
</svg>
