<svg width="31" height="31" viewBox="0 0 31 31" fill="none" xmlns="http://www.w3.org/2000/svg">
<path d="M23.5998 7.27861C23.4413 7.14194 23.2483 7.05119 23.0418 7.01617C22.8352 6.98116 22.623 7.00324 22.4281 7.08L4.7298 14.0165C4.49848 14.1072 4.3028 14.2702 4.17206 14.481C4.04132 14.6919 3.98254 14.9394 4.0045 15.1864C4.02647 15.4334 4.12801 15.6666 4.29393 15.8513C4.45985 16.0359 4.68123 16.162 4.92495 16.2106L9.72878 17.1692V23.0846C9.72639 23.3122 9.79292 23.5352 9.91967 23.7244C10.0464 23.9137 10.2275 24.0603 10.4392 24.1452C10.581 24.2045 10.7331 24.2352 10.8868 24.2356C11.0371 24.2351 11.1857 24.2049 11.3242 24.1467C11.4626 24.0885 11.5881 24.0034 11.6933 23.8964L14.4356 21.1606L18.4817 24.7128C18.6902 24.8975 18.9593 24.9997 19.2381 25C19.3594 24.9999 19.4798 24.9808 19.5952 24.9436C19.7854 24.8834 19.9564 24.7745 20.0912 24.6278C20.2261 24.4811 20.32 24.3016 20.3636 24.1074L23.9706 8.40501C24.0177 8.20137 24.008 7.98877 23.9427 7.79022C23.8773 7.59167 23.7587 7.41474 23.5998 7.27861ZM4.76854 15.1187C4.75904 15.036 4.77773 14.9526 4.82162 14.8818C4.8655 14.8111 4.93201 14.7572 5.0104 14.7288L21.2337 8.37038L10.0234 16.4475L5.07541 15.4602C4.9932 15.446 4.91819 15.4046 4.8625 15.3426C4.80682 15.2806 4.77371 15.2017 4.76854 15.1187ZM11.1507 23.3553C11.0971 23.4088 11.0287 23.4452 10.9543 23.46C10.8799 23.4747 10.8028 23.4671 10.7327 23.4382C10.6626 23.4092 10.6027 23.3601 10.5606 23.2972C10.5184 23.2343 10.4959 23.1603 10.496 23.0846V17.7019L13.8585 20.654L11.1507 23.3553ZM23.2228 8.23405L19.6157 23.9365C19.6009 24.0011 19.5694 24.0607 19.5245 24.1096C19.4796 24.1584 19.4228 24.1948 19.3596 24.2152C19.2963 24.2355 19.2289 24.2391 19.1638 24.2257C19.0988 24.2122 19.0383 24.1821 18.9884 24.1383L10.7266 16.8849L23.1608 7.926C23.1935 7.96946 23.2161 8.01967 23.2268 8.07296C23.2375 8.12625 23.2362 8.18126 23.2228 8.23396V8.23405Z" fill="#8AC7FF"/>
<circle cx="15.5" cy="15.5" r="15" stroke="#8AC7FF"/>
</svg>
