<svg width="64" height="57" viewBox="0 0 64 57" fill="none" xmlns="http://www.w3.org/2000/svg">
<path d="M63.6652 23H53.9818H44.0093V24.3843L44 25H63.5C63.818 25 63.6652 24.7022 63.6652 24.3843V23ZM54 33H44C44 33 44.0093 32.682 44.0093 33V34.8987C44.0093 35.2166 44 35 44 35H54C54.318 35 53.9818 35.2166 53.9818 34.8987V33C53.9818 32.682 54 33 54 33ZM28 14.5562H26.1599C25.7119 14.5562 25.3506 14.9175 25.3506 15.3656L25.5 32.5C25.5 32.7602 25.7904 33.3482 26 33.5L31 37.5L36.5 41.612C36.8613 41.8722 37.5705 41.612 37.5705 41.612L38 41V40.5C38.2602 40.1387 37.8613 39.7602 37.5 39.5L32.5 35.5L28 31.5V24.5V16.5C28.0072 16.052 28 14.5562 28 14.5562Z" fill="black"/>
<path d="M44 28V30H53.9818V28H44Z" fill="black"/>
<path d="M52.9554 39.95L51.5 40.5C51.0953 40.5 49.7168 42.1531 49.5 42.5C48.5822 43.9525 46.7285 45.2715 45.5 46.5C43.3827 48.6173 40.2388 49.8438 37.5 51C34.66 52.1996 31.3773 53.2597 28.2699 53.2597C25.1553 53.2597 21.3328 52.1996 18.5 51C15.7612 49.8438 13.1173 47.6173 11 45.5C8.88265 43.3827 6.65623 40.7388 5.5 38C4.30041 35.1672 3.5 30.6146 3.5 27.5C3.5 24.3854 4.80041 21.34 6 18.5C7.15623 15.7612 8.88265 12.6173 11 10.5C13.1173 8.38265 16.2612 6.15623 19 5C21.8328 3.80041 26.3926 3 29.5 3C32.6146 3 35.1672 4.30041 38 5.5C40.7388 6.65623 43.3827 7.88265 45.5 10C46.7285 11.2285 48.0822 12.5475 49 14C49 14 51.0953 16.5508 51.5 16.5508H52.9554C53.454 16.5508 53.772 16.0305 53.548 15.5896C48.8364 6.21695 39.283 0.125054 28.6168 0.00220425C13.0004 -0.19291 0.0289551 12.5907 4.93697e-05 28.1926C-0.0288564 43.8234 12.6391 56.5058 28.2699 56.5058C39.0734 56.5058 48.7858 50.3922 53.548 40.9111C53.772 40.4703 53.4468 39.95 52.9554 39.95Z" fill="black"/>
</svg>
