<svg width="58" height="49" viewBox="0 0 58 49" fill="none" xmlns="http://www.w3.org/2000/svg">
<path d="M48.72 10.5V19.8333C48.72 20.1428 48.5978 20.4395 48.3802 20.6583C48.1627 20.8771 47.8676 21 47.56 21C47.2523 21 46.9573 20.8771 46.7398 20.6583C46.5222 20.4395 46.4 20.1428 46.4 19.8333V11.6667H38.28C37.9723 11.6667 37.6773 11.5438 37.4598 11.325C37.2422 11.1062 37.12 10.8094 37.12 10.5C37.12 10.1906 37.2422 9.89383 37.4598 9.67504C37.6773 9.45625 37.9723 9.33333 38.28 9.33333H47.56C47.8676 9.33333 48.1627 9.45625 48.3802 9.67504C48.5978 9.89383 48.72 10.1906 48.72 10.5ZM19.72 37.3333H11.6V29.1667C11.6 28.8572 11.4778 28.5605 11.2602 28.3417C11.0427 28.1229 10.7477 28 10.44 28C10.1323 28 9.8373 28.1229 9.61976 28.3417C9.40221 28.5605 9.28 28.8572 9.28 29.1667V38.5C9.28 38.8094 9.40221 39.1062 9.61976 39.325C9.8373 39.5438 10.1323 39.6667 10.44 39.6667H19.72C20.0277 39.6667 20.3227 39.5438 20.5402 39.325C20.7578 39.1062 20.88 38.8094 20.88 38.5C20.88 38.1906 20.7578 37.8938 20.5402 37.675C20.3227 37.4562 20.0277 37.3333 19.72 37.3333ZM58 3.5V45.5C57.999 46.4279 57.632 47.3176 56.9796 47.9738C56.3272 48.6299 55.4426 48.999 54.52 49H3.48C2.55735 48.999 1.67278 48.6299 1.02037 47.9738C0.36796 47.3176 0.000997914 46.4279 0 45.5V3.5C0.000997914 2.57205 0.36796 1.68239 1.02037 1.02624C1.67278 0.370075 2.55735 0.00100365 3.48 0H54.52C55.4426 0.00100365 56.3272 0.370075 56.9796 1.02624C57.632 1.68239 57.999 2.57205 58 3.5ZM55.68 3.5C55.6797 3.19068 55.5574 2.89411 55.3399 2.67538C55.1224 2.45666 54.8276 2.33364 54.52 2.33333H3.48C3.17244 2.33364 2.87757 2.45666 2.66009 2.67538C2.44262 2.89411 2.32031 3.19068 2.32 3.5V45.5C2.32031 45.8093 2.44262 46.1059 2.66009 46.3246C2.87757 46.5433 3.17244 46.6664 3.48 46.6667H54.52C54.8276 46.6664 55.1224 46.5433 55.3399 46.3246C55.5574 46.1059 55.6797 45.8093 55.68 45.5V3.5Z" fill="black"/>
</svg>
