<svg width="31" height="30" viewBox="0 0 31 30" fill="none" xmlns="http://www.w3.org/2000/svg">
<path d="M19.8301 0H15.5634H11.184C2.50818 0 0 2.15232 0 10.6469V19.1471C0.911765 27.6803 2.74939 28.8725 11.184 29.7843H19.816C28.5686 28.8725 30.0882 27.6569 31 19.1374V10.6607C30.0882 1.51961 28.8726 0.303922 19.8301 0ZM29.7843 19.1471C29.7843 26.1096 26.932 28.5686 19.816 28.5686H11.1699C4.55882 28.2647 1.51961 26.7451 1.21569 19.1374V10.6469C0.911765 3.50219 3.31639 0.911765 11.184 0.911765H15.5634H19.8301C26.932 0.911765 29.7843 2.12745 29.7843 10.6607V14.8922V19.1471Z" fill="#44A2BF"/>
<path d="M13.9553 8.81372H16.0321V21.2745C11.3593 20.2361 7.72492 14.5249 6.68652 8.81372" stroke="#44A2BF" stroke-width="2" stroke-linecap="round" stroke-linejoin="round"/>
<path d="M24.3394 8.81372C23.301 10.8905 21.2242 14.0057 19.1474 15.0441H16.0322" stroke="#44A2BF" stroke-width="2" stroke-linecap="round" stroke-linejoin="round"/>
<path d="M23.192 21.2743C22.1536 19.1975 20.0768 16.0823 18 15.0439" stroke="#44A2BF" stroke-width="2" stroke-linecap="round" stroke-linejoin="round"/>
</svg>
