<svg width="29" height="29" viewBox="0 0 29 29" fill="none" xmlns="http://www.w3.org/2000/svg">
<path d="M14.4999 0C11.9614 0.000665969 9.46746 0.667554 7.26744 1.93401C5.06743 3.20047 3.23837 5.02213 1.96308 7.21694C0.687779 9.41174 0.0109135 11.9028 0.000130873 14.4412C-0.0106518 16.9795 0.645026 19.4762 1.90163 21.6818L0.595912 26.2513C0.510696 26.5496 0.506812 26.8653 0.584663 27.1656C0.662513 27.466 0.819266 27.7401 1.03868 27.9594C1.25809 28.1788 1.53218 28.3355 1.83255 28.4134C2.13291 28.4912 2.44863 28.4873 2.74698 28.4021L7.31692 27.0966C9.24628 28.1965 11.4025 28.8386 13.6193 28.9733C15.8362 29.108 18.0543 28.7318 20.1027 27.8736C22.1511 27.0154 23.9749 25.6983 25.4336 24.0237C26.8923 22.3491 27.9469 20.3618 28.5159 18.2152C29.085 16.0686 29.1533 13.82 28.7157 11.6427C28.278 9.46552 27.3461 7.41791 25.9918 5.65784C24.6375 3.89777 22.897 2.47228 20.9045 1.49132C18.912 0.510352 16.7208 0.000128674 14.4999 0ZM14.4999 27.838C12.1041 27.8397 9.75216 27.1952 7.69189 25.9725C7.62396 25.932 7.54847 25.9059 7.47007 25.8957C7.39167 25.8856 7.31201 25.8915 7.23601 25.9133L2.42827 27.2868C2.32882 27.3152 2.2236 27.3165 2.12349 27.2905C2.02339 27.2645 1.93204 27.2123 1.85892 27.1392C1.7858 27.066 1.73357 26.9747 1.70763 26.8746C1.68169 26.7745 1.68299 26.6693 1.71139 26.5698L3.08483 21.7625C3.10654 21.6865 3.1125 21.6069 3.10233 21.5285C3.09215 21.4501 3.06607 21.3746 3.02567 21.3067C1.52316 18.7755 0.900047 15.8184 1.25341 12.8962C1.60676 9.97392 2.91675 7.25059 4.97929 5.15039C7.04183 3.05019 9.74111 1.69107 12.6566 1.28474C15.5722 0.878406 18.5403 1.44768 21.0985 2.90389C23.6568 4.3601 25.6615 6.62147 26.8006 9.33572C27.9396 12.05 28.1488 15.0647 27.3958 17.9103C26.6427 20.7559 24.9696 23.2725 22.6371 25.0682C20.3046 26.8638 17.4436 27.8377 14.4999 27.838ZM21.8241 17.1875L18.8574 15.4925C18.589 15.3393 18.2847 15.2603 17.9757 15.2636C17.6667 15.2669 17.3641 15.3523 17.099 15.5112L15.097 16.7123C13.8851 16.0982 12.9006 15.1138 12.2866 13.9019L13.4878 11.9C13.6466 11.635 13.7321 11.3324 13.7353 11.0234C13.7386 10.7144 13.6596 10.4101 13.5064 10.1417L11.8113 7.17526C11.6729 6.93375 11.4732 6.73302 11.2324 6.59332C10.9917 6.45361 10.7183 6.37988 10.4399 6.37955C9.21242 6.37985 8.03503 6.86638 7.16543 7.73266C6.29583 8.59895 5.80485 9.77442 5.79994 11.0018C5.79767 12.6027 6.11103 14.1882 6.72211 15.6679C7.33318 17.1475 8.22997 18.4922 9.36119 19.6249C10.4924 20.7577 11.8359 21.6564 13.3147 22.2696C14.7936 22.8827 16.3788 23.1983 17.9797 23.1984H17.9971C19.2246 23.1935 20.4002 22.7026 21.2666 21.833C22.133 20.9635 22.6196 19.7861 22.6199 18.5587C22.6195 18.2804 22.5458 18.007 22.4061 17.7663C22.2664 17.5255 22.0656 17.3259 21.8241 17.1875ZM17.9955 22.0385H17.9799C16.5314 22.0385 15.0972 21.7529 13.7591 21.1982C12.4211 20.6434 11.2056 19.8304 10.1821 18.8055C9.15861 17.7806 8.34721 16.5641 7.79432 15.2254C7.24143 13.8866 6.95789 12.4521 6.95993 11.0037C6.96392 10.0835 7.33233 9.2023 7.98454 8.55305C8.63674 7.9038 9.51961 7.53935 10.4399 7.53947C10.5138 7.53956 10.5864 7.55914 10.6504 7.59622C10.7143 7.63331 10.7674 7.6866 10.8042 7.75072L12.4992 10.7174C12.5503 10.8068 12.5766 10.9082 12.5755 11.0112C12.5745 11.1142 12.546 11.215 12.4931 11.3034L11.1316 13.5722C11.0834 13.6524 11.0554 13.7431 11.0499 13.8365C11.0444 13.9299 11.0616 14.0232 11.1 14.1085C11.857 15.7932 13.2057 17.1418 14.8905 17.8987C14.9758 17.9371 15.0692 17.9543 15.1626 17.9488C15.256 17.9433 15.3467 17.9153 15.4269 17.8671L17.6957 16.5056C17.7841 16.4527 17.8849 16.4242 17.988 16.4231C18.091 16.422 18.1924 16.4484 18.2819 16.4994L21.2486 18.1946C21.3127 18.2314 21.366 18.2844 21.4031 18.3483C21.4402 18.4122 21.4598 18.4848 21.4599 18.5587C21.46 19.4789 21.0955 20.3617 20.4463 21.0139C19.797 21.666 18.9158 22.0344 17.9955 22.0385Z" fill="#3EE058"/>
</svg>
